# xmcd
#
# Track frame offsets:
#	225
#	15400
#	27298
#	39087
#	50364
#
# Disc length: 847 seconds
#
# Revision: 0
# Processed by: cddbd v1.5.1PL2 Copyright (c) Steve Scherf et al.
# Submitted via: dBpowerAMP V4.0
#
DISCID=2c034c05
DTITLE=Junkie - Junkie EP
DYEAR=1996
DGENRE=Indie Pop
TTITLE0=Decay
TTITLE1=Rollercoaster
TTITLE2=These Things Kill Me
TTITLE3=Underground
TTITLE4=Silver Machine
EXTD=ex-Secret Shine
EXTT0=
EXTT1=
EXTT2=
EXTT3=
EXTT4=
PLAYORDER=
